<mxfile host="65bd71144e">
    <diagram id="d3UbX4-jPLQej0_PRA3l" name="Page-1">
        <mxGraphModel dx="1157" dy="567" grid="1" gridSize="10" guides="1" tooltips="1" connect="1" arrows="1" fold="1" page="1" pageScale="1" pageWidth="1654" pageHeight="1169" math="0" shadow="0">
            <root>
                <mxCell id="0"/>
                <mxCell id="1" parent="0"/>
                <mxCell id="2" value="Service Provider" style="swimlane;" parent="1" vertex="1">
                    <mxGeometry x="500" y="290" width="680" height="470" as="geometry"/>
                </mxCell>
                <mxCell id="3" value="Authentication(Username , password)&lt;br&gt;RenewToken(Usename,password)&lt;br&gt;GetPrice&lt;br&gt;RegisterPrice&lt;br&gt;CancelParsel&lt;br&gt;TrackParsel&lt;br&gt;EditParsel&lt;br&gt;" style="text;html=1;align=left;verticalAlign=middle;resizable=0;points=[];autosize=1;strokeColor=none;fillColor=none;fontSize=36;" parent="2" vertex="1">
                    <mxGeometry x="40" y="90" width="620" height="300" as="geometry"/>
                </mxCell>
            </root>
        </mxGraphModel>
    </diagram>
</mxfile>